<svg xmlns="http://www.w3.org/2000/svg" version="1.0" viewBox="230 80 210 210"><path fill="#000040" fill-opacity=".1" d="M378.3 135.5c0 2.2.2 3 .4 1.7.2-1.2.2-3 0-4-.3-.9-.5.1-.4 2.3m.1 27c0 9.3.2 13.3.3 8.8.2-4.5.2-12.2 0-17-.1-4.8-.3-1.2-.3 8.2m0 28.5c0 6.3.1 8.9.3 5.7.2-3.1.2-8.3 0-11.5-.2-3.1-.3-.5-.3 5.8m-109.2-4c0 1.4.2 1.9.5 1.2.2-.6.2-1.8 0-2.5-.3-.6-.5-.1-.5 1.3m109 25c0 1.9.2 2.7.5 1.7.2-.9.2-2.5 0-3.5-.3-.9-.5-.1-.5 1.8m-61.2.5c1.3 1.4 2.6 2.5 2.8 2.5.3 0-.5-1.1-1.8-2.5s-2.6-2.5-2.8-2.5c-.3 0 .5 1.1 1.8 2.5m16.8 15.2c1.2.2 3.2.2 4.5 0 1.2-.2.2-.4-2.3-.4s-3.5.2-2.2.4m14.5 0c.9.2 2.5.2 3.5 0 .9-.3.1-.5-1.8-.5s-2.7.2-1.7.5m29.9 6.3c0 1.9.2 2.7.5 1.7.2-.9.2-2.5 0-3.5-.3-.9-.5-.1-.5 1.8m-28.3 23.7c-1.3 1.6-1.2 1.7.4.4.9-.7 1.7-1.5 1.7-1.7 0-.8-.8-.3-2.1 1.3"/><path fill="#004080" fill-opacity=".1" d="M340.3 250.7c2.6.2 6.8.2 9.5 0 2.6-.2.4-.3-4.8-.3s-7.4.1-4.7.3"/><path fill="#404080" fill-opacity=".2" d="M341.8 92.7c.7.3 1.6.2 1.9-.1.4-.3-.2-.6-1.3-.5-1.1 0-1.4.3-.6.6m-49.9 27c-1.3 1.6-1.2 1.7.4.4s2.1-2.1 1.3-2.1c-.2 0-1 .8-1.7 1.7m26 25c-1.3 1.6-1.2 1.7.4.4.9-.7 1.7-1.5 1.7-1.7 0-.8-.8-.3-2.1 1.3M304.5 219c1 1.1 2 2 2.3 2s-.3-.9-1.3-2-2-2-2.3-2 .3.9 1.3 2m20.3 8.7c.7.3 1.6.2 1.9-.1.4-.3-.2-.6-1.3-.5-1.1 0-1.4.3-.6.6m58.2 19.7c0 .2.8 1 1.8 1.7 1.5 1.3 1.6 1.2.3-.4s-2.1-2.1-2.1-1.3"/><path fill="#404080" fill-opacity=".3" d="m330.9 131.7-3.4 3.8 3.8-3.4c2-1.9 3.7-3.6 3.7-3.8 0-.8-.8 0-4.1 3.4m-9.5 9.5-1.9 2.3 2.3-1.9c1.2-1.1 2.2-2.1 2.2-2.3 0-.8-.8-.2-2.6 1.9"/><path fill="#4040BF" fill-opacity=".4" d="M356.3 92.7c5.4.2 13.9.2 19 0 5.1-.1.7-.3-9.8-.3-10.4 0-14.6.2-9.2.3m30.5 0c1.2.2 3 .2 4 0 .9-.3-.1-.5-2.3-.4-2.2 0-3 .2-1.7.4M292.3 183c0 3 .2 4.3.4 2.7.2-1.5.2-3.9 0-5.5-.2-1.5-.4-.2-.4 2.8m69.5 93.7c5.6.2 14.8.2 20.5 0 5.6-.1 1-.3-10.3-.3s-15.9.2-10.2.3"/><path fill="#404080" fill-opacity=".4" d="M394.3 92.7c1.5.2 3.7.2 5 0 1.2-.2 0-.4-2.8-.4-2.7 0-3.8.2-2.2.4m-39.2 126.9c0 1.1.3 1.4.6.6.3-.7.2-1.6-.1-1.9-.3-.4-.6.2-.5 1.3M286 232.4c0 .2.8 1 1.8 1.7 1.5 1.3 1.6 1.2.3-.4s-2.1-2.1-2.1-1.3m45.8 44.3c.7.3 1.6.2 1.9-.1.4-.3-.2-.6-1.3-.5-1.1 0-1.4.3-.6.6m9 0c2.3.2 5.9.2 8 0 2-.2.1-.4-4.3-.4s-6.1.2-3.7.4m54 0c1.8.2 4.5.2 6 0s0-.4-3.3-.4-4.5.2-2.7.4"/><path fill="#4040BF" fill-opacity=".5" d="M344.9 148.7c-1.3 1.6-1.2 1.7.4.4s2.1-2.1 1.3-2.1c-.2 0-1 .8-1.7 1.7m-41.7 29.8c0 1.6.2 2.2.5 1.2.2-.9.2-2.3 0-3-.3-.6-.5.1-.5 1.8m39.7 86.2c-1.3 1.6-1.2 1.7.4.4.9-.7 1.7-1.5 1.7-1.7 0-.8-.8-.3-2.1 1.3"/><path fill="#4040BF" fill-opacity=".6" d="m376.4 117.2-1.9 2.3 2.3-1.9c2.1-1.8 2.7-2.6 1.9-2.6-.2 0-1.2 1-2.3 2.2m-9.5 9.5c-1.3 1.6-1.2 1.7.4.4.9-.7 1.7-1.5 1.7-1.7 0-.8-.8-.3-2.1 1.3m-11 11c-1.3 1.6-1.2 1.7.4.4s2.1-2.1 1.3-2.1c-.2 0-1 .8-1.7 1.7m-4.5 4.5-1.9 2.3 2.3-1.9c2.1-1.8 2.7-2.6 1.9-2.6-.2 0-1.2 1-2.3 2.2m-9.5 9.5c-1.3 1.6-1.2 1.7.4.4s2.1-2.1 1.3-2.1c-.2 0-1 .8-1.7 1.7m-5 5c-1.3 1.6-1.2 1.7.4.4s2.1-2.1 1.3-2.1c-.2 0-1 .8-1.7 1.7m-6 6-2.4 2.8 2.8-2.4c2.5-2.3 3.2-3.1 2.4-3.1-.2 0-1.4 1.2-2.8 2.7m-60.8 14.9c0 1.1.3 1.4.6.6.3-.7.2-1.6-.1-1.9-.3-.4-.6.2-.5 1.3m0 11c0 1.1.3 1.4.6.6.3-.7.2-1.6-.1-1.9-.3-.4-.6.2-.5 1.3m47.1 5.4c0 1.4.2 1.9.5 1.2.2-.6.2-1.8 0-2.5-.3-.6-.5-.1-.5 1.3m19.1 34.7c3.7.2 9.6.2 13 0s.4-.3-6.8-.3c-7.1 0-9.9.1-6.2.3m62.2 38.3c1 1.1 2 2 2.3 2s-.3-.9-1.3-2-2-2-2.3-2 .3.9 1.3 2"/><path fill="#4040BF" fill-opacity=".7" d="m396.4 97.2-1.9 2.3 2.3-1.9c2.1-1.8 2.7-2.6 1.9-2.6-.2 0-1.2 1-2.3 2.2m-10 10-1.9 2.3 2.3-1.9c2.1-1.8 2.7-2.6 1.9-2.6-.2 0-1.2 1-2.3 2.2m-22.5 22.5c-1.3 1.6-1.2 1.7.4.4s2.1-2.1 1.3-2.1c-.2 0-1 .8-1.7 1.7m-40.5 10.5-1.9 2.3 2.3-1.9c1.2-1.1 2.2-2.1 2.2-2.3 0-.8-.8-.2-2.6 1.9m44.5-.5c-1.3 1.6-1.2 1.7.4.4.9-.7 1.7-1.5 1.7-1.7 0-.8-.8-.3-2.1 1.3m-50 6c-1.3 1.6-1.2 1.7.4.4.9-.7 1.7-1.5 1.7-1.7 0-.8-.8-.3-2.1 1.3M270.3 183c0 2.5.2 3.5.4 2.2.2-1.2.2-3.2 0-4.5-.2-1.2-.4-.2-.4 2.3m55.5 66.7c.7.3 1.6.2 1.9-.1.4-.3-.2-.6-1.3-.5-1.1 0-1.4.3-.6.6m65.2 8.7c0 .2.8 1 1.8 1.7 1.5 1.3 1.6 1.2.3-.4s-2.1-2.1-2.1-1.3m-58.1 15.3c-1.3 1.6-1.2 1.7.4.4s2.1-2.1 1.3-2.1c-.2 0-1 .8-1.7 1.7"/><path fill="#4040BF" fill-opacity=".8" d="M341.8 93.7c.6.2 1.8.2 2.5 0 .6-.3.1-.5-1.3-.5s-1.9.2-1.2.5m-40.9 18c-1.3 1.6-1.2 1.7.4.4s2.1-2.1 1.3-2.1c-.2 0-1 .8-1.7 1.7m46.7 4c-.6 1.4-.5 1.5.5.6.7-.7 1-1.5.7-1.8s-.9.2-1.2 1.2m-3.7 4c-1.3 1.6-1.2 1.7.4.4s2.1-2.1 1.3-2.1c-.2 0-1 .8-1.7 1.7m-8 8-3.4 3.8 3.8-3.4c2-1.9 3.7-3.6 3.7-3.8 0-.8-.8 0-4.1 3.4m39.5 4.5c-.4.7-.3.8.4.4.9-.5 1.3 13.2 1.5 54.1l.2 54.8.3-55.3c.1-34-.2-55.2-.7-55.2-.6 0-1.3.5-1.7 1.2m-48 4-1.9 2.3 2.3-1.9c1.2-1.1 2.2-2.1 2.2-2.3 0-.8-.8-.2-2.6 1.9m32.5 11.5-2.4 2.8 2.8-2.4c2.5-2.3 3.2-3.1 2.4-3.1-.2 0-1.4 1.2-2.8 2.7m-34.1 81c.7.3 1.6.2 1.9-.1.4-.3-.2-.6-1.3-.5-1.1 0-1.4.3-.6.6m-37.8 4.7c0 .2.8 1 1.8 1.7 1.5 1.3 1.6 1.2.3-.4s-2.1-2.1-2.1-1.3m46.2 16.3c3.7.2 10 .2 14 0 4-.1 1-.3-6.7-.3s-11 .1-7.3.3m4.2 19.5-1.9 2.3 2.3-1.9c2.1-1.8 2.7-2.6 1.9-2.6-.2 0-1.2 1-2.3 2.2"/><g fill="#4040BF" fill-opacity=".9" stroke-opacity=".9" stroke-width="0"><path d="M353.3 93.7c4.8.2 12.5.2 17 0 4.5-.1.6-.3-8.8-.3-9.3 0-13 .2-8.2.3m44.1.1c.3.5-14.8 16.1-33.5 34.8-31.9 31.7-38.5 38.7-40.3 42.4-.4.8.3.1 1.5-1.5 1.2-1.7 18.7-19.5 38.8-39.8 22.3-22.3 35.9-36.7 34.8-36.7-1 0-1.6.4-1.3.8m-60.6.9c.7.3 1.6.2 1.9-.1.4-.3-.2-.6-1.3-.5-1.1 0-1.4.3-.6.6m-4 1c.7.3 1.6.2 1.9-.1.4-.3-.2-.6-1.3-.5-1.1 0-1.4.3-.6.6m-7 2c.7.3 1.6.2 1.9-.1.4-.3-.2-.6-1.3-.5-1.1 0-1.4.3-.6.6m-15 6.9c-3.8 2-3.6 2.8.2.9 1.7-.9 3-1.8 3-2 0-.7-.1-.6-3.2 1.1m-7.9 6.1-2.4 2.8 2.8-2.4c2.5-2.3 3.2-3.1 2.4-3.1-.2 0-1.4 1.2-2.8 2.7m-7 6.5c-1.9 2.4-2.6 3.7-1.6 2.9 2-1.6 6.1-7.1 5.4-7.1-.3 0-2 1.9-3.8 4.2m49.4-3.5c2 .2 3.7.7 3.7 1.1 0 .3-1.2 2-2.7 3.6l-2.8 3.1 3.3-2.9c4.5-4.1 4.2-5.6-1-5.4l-4.3.1zm-8 1c.9.2 2.3.2 3 0 .6-.3-.1-.5-1.8-.5-1.6 0-2.2.2-1.2.5m-6.8 2.3c-.3.6.1.7.9.4 1.8-.7 2.1-1.4.7-1.4-.6 0-1.3.4-1.6 1m-10.5 5.1c-4.1 3.3-15 14.2-15 15.1 0 .4 2.1-1.6 4.8-4.4 2.6-2.8 6.9-6.8 9.5-9 2.7-2.1 4.5-3.8 4-3.8-.4.1-1.9 1-3.3 2.1m19.6 2.8-3 3.6 3.4-3.2c1.9-1.8 3.2-3.4 2.9-3.6-.2-.2-1.7 1.2-3.3 3.2m-51.7 2.3c-1.7 2.4-1.8 2.9-.6 1.9 1.8-1.4 4.2-5.1 3.3-5.1-.3 0-1.5 1.5-2.7 3.2m43.5 6-2.9 3.3 3.3-2.9c3-2.8 3.7-3.6 2.9-3.6-.2 0-1.6 1.5-3.3 3.2m43 1-1.9 2.3 2.3-1.9c1.2-1.1 2.2-2.1 2.2-2.3 0-.8-.8-.2-2.6 1.9m-92.8 3.3c-.9 2.6-.7 3.2.5 1.2.6-1 .9-2.1.6-2.3-.2-.3-.7.2-1.1 1.1m86.7 2.2c-1.7 1.8-2.8 3.3-2.4 3.3.9 0 6.6-5.9 6-6.3-.2-.1-1.8 1.2-3.6 3"/><path d="M323.8 140.5c-2.1 1.9-3.4 3.5-3 3.5.5 0 2.3-1.6 4.2-3.5 4.4-4.5 3.6-4.5-1.2 0m39.1 5.2c-1.3 1.6-1.2 1.7.4.4s2.1-2.1 1.3-2.1c-.2 0-1 .8-1.7 1.7m-46 2-2.4 2.8 2.8-2.4c2.5-2.3 3.2-3.1 2.4-3.1-.2 0-1.4 1.2-2.8 2.7m-19 1.9c-.5 1.5-.8 2.9-.5 3.1.2.2.8-1 1.4-2.6 1.3-3.8.5-4.1-.9-.5m58.8 1.1c-.4.3-.6 18.2-.5 39.7l.3 39.1.2-38.4c.2-26.3.7-38.8 1.4-39.8 1.1-1.3-.2-1.9-1.4-.6m-81.6 2.8c-.1 1.1-.4 3.1-.6 4.5l-.6 2.5 1.1-2.5c.6-1.3.9-3.3.7-4.5-.4-1.9-.4-1.9-.6 0m35.6 2.8-1.7 3.2 2-2.4c1.7-2 2.6-4.1 1.8-4.1-.2 0-1.1 1.5-2.1 3.3m-37.6 6.3c0 1.1.3 1.4.6.6.3-.7.2-1.6-.1-1.9-.3-.4-.6.2-.5 1.3m-1 5c0 1.1.3 1.4.6.6.3-.7.2-1.6-.1-1.9-.3-.4-.6.2-.5 1.3m20.1 1.9c0 1.6.2 2.2.5 1.2.2-.9.2-2.3 0-3-.3-.6-.5.1-.5 1.8m12.9.1c0 1.1.3 1.4.6.6.3-.7.2-1.6-.1-1.9-.3-.4-.6.2-.5 1.3m-33.9 4.4c0 1.4.2 1.9.5 1.2.2-.6.2-1.8 0-2.5-.3-.6-.5-.1-.5 1.3m20 9c0 5.8.3 11.6.7 13s.6-2.7.4-9c-.5-15.1-1.1-17.2-1.1-4m13.1-4.5c0 3.3.2 4.5.4 2.7s.2-4.5 0-6-.4 0-.4 3.3m16.2-2.4c-.9 1.7-1.5 3.4-1.3 3.9s1.1-.9 2-3c2-4.7 1.5-5.3-.7-.9m-15.4 11.5c0 1.1.3 1.4.6.6.3-.7.2-1.6-.1-1.9-.3-.4-.6.2-.5 1.3m12 0c0 1.1.3 1.4.6.6.3-.7.2-1.6-.1-1.9-.3-.4-.6.2-.5 1.3m-45.9 4.4c0 1.4.2 1.9.5 1.2.2-.6.2-1.8 0-2.5-.3-.6-.5-.1-.5 1.3m37.4 5.3c.3 1 .9 1.5 1.2 1.2s0-1.1-.7-1.8c-1-.9-1.1-.8-.5.6m-36.5 1.3c0 1.1.3 1.4.6.6.3-.7.2-1.6-.1-1.9-.3-.4-.6.2-.5 1.3m21 1.4c0 .8.4 2.2.9 3 1.2 1.8 1.2.2 0-2.5-.6-1.3-.9-1.5-.9-.5m24 .6c0 1.1.3 1.4.6.6.3-.7.2-1.6-.1-1.9-.3-.4-.6.2-.5 1.3m-5.6 2.3c.8 1.7 1.9 3.3 2.5 3.6.5.3.1-1-1.1-2.9-2.5-4.3-3.6-4.8-1.4-.7m-37.9 2.1c.4 1.9 1.1 4.4 1.5 5.5q.9 2.1.3-1.5c-.4-1.9-1.1-4.4-1.5-5.5q-.9-2.1-.3 1.5m45.5 3.4c-.1 1.3-.6 1.6-1.8 1.1-1.2-.4-.7.5 1.1 2.4 1.6 1.7 3.1 2.9 3.3 2.8.2-.2-.3-2.1-1.1-4.3-.8-2.1-1.5-3.1-1.5-2m-23.1 0c0 1.1 3 6.6 3.6 6.6.2 0-.3-1.5-1.2-3.3-1.9-3.6-2.4-4.4-2.4-3.3m4 8c0 .2.8 1 1.8 1.7 1.5 1.3 1.6 1.2.3-.4s-2.1-2.1-2.1-1.3m-20.5 4.6c.9 1.6 1.8 3 2.1 3 .2 0-.2-1.4-1.1-3-.9-1.7-1.8-3-2.1-3-.2 0 .2 1.3 1.1 3m29.9 3.4c1.1.9 2.4 1.6 3 1.6 1.2 0 .7-.5-2.4-1.9-2.4-1.1-2.4-1.1-.6.3m-26.4 3c0 .2.8 1 1.8 1.7 1.5 1.3 1.6 1.2.3-.4s-2.1-2.1-2.1-1.3m14.9 13.5c1.3 1.2 2.8 2.1 3.4 2.1 1.2 0 1.1 0-2.8-2.4l-3-1.7zm5.1 2.5c0 .2.7.7 1.6 1 .8.3 1.2.2.9-.4-.6-1-2.5-1.4-2.5-.6m75.9 1.3c.5 1 2.4 3.1 4.2 4.8 3 2.8 2.9 2.6-.6-1.8-4.1-5-5.2-5.8-3.6-3M311 247c.8.5 2 1 2.5 1 .6 0 .3-.5-.5-1s-1.9-1-2.5-1c-.5 0-.3.5.5 1m12.8 1.7c3.4.2 9 .2 12.5 0 3.4-.2.6-.3-6.3-.3s-9.7.1-6.2.3m31.7 3.1c0 2.2-1.8 4.4-9.8 11.5-5.4 4.8-9.5 8.7-9.2 8.7s5-3.9 10.5-8.8c8-7 10-9.2 10-11.5 0-1.5-.3-2.7-.8-2.7-.4 0-.7 1.2-.7 2.8m30.5 2.1c0 .5 1.2 1.7 2.8 2.6l2.7 1.8-2.4-2.7c-2.6-2.8-3.1-3.1-3.1-1.7m7.8 8.8c1.6 2.1 4 4.7 5.3 5.8s.1-.6-2.5-3.8c-5.4-6.3-7.5-7.8-2.8-2m8.6 10 1.9 2.3h-35.2c-27.9 0-35.1-.3-34.5-1.3.5-.7 0-.6-1.1.3-1.6 1.3 2 1.5 34.5 1.8 20 .1 36.6 0 36.8-.3.3-.3-.5-1.6-1.8-2.8l-2.4-2.2z"/></g><path fill="#4040BF" d="M358 94c-23.6.6-33.8 2.7-42 8.5-2.5 1.8-5.6 3.5-6.7 3.9-1.2.4-3.6 2.3-5.2 4.2-1.7 1.9-3.1 3.2-3.1 2.8 0-.3-.7-.1-1.5.6-1.5 1.3-2.1 3.5-.7 2.6.4-.2 1.4.4 2 1.5 1.2 1.9 1.2 1.9-1 .5s-2.5-1.3-5.6 1.5c-1.7 1.6-3.2 3.4-3.2 3.9s-1.1 2.2-2.5 3.8c-2.8 3.3-11.1 19.7-11.9 23.4-.3 1.3-1.5 6.3-2.8 11.3-3.2 12.9-3.1 27.7.2 41 1.3 5.5 2.8 10.3 3.3 10.6s.8.9.8 1.3c-.3 2 0 2.6 1.2 2 .6-.4.9-.4.5.1-.4.4.4 3 1.8 5.8 2 3.9 2.8 4.7 3.6 3.6s.9-1 .4.4c-.9 3 11.2 14 14.3 12.9.8-.2 1.1 0 .8.5s1.6 1.9 4.4 3.1c5.2 2.3 7.4 2.8 4.9 1.2-1.2-.8-1.1-1 .5-.7 2.8.4 4.6 1.7 4 2.8-.4.5 3.6.9 9.8.9 5.7 0 15.2.3 21.1.7 9.7.5 10.6.5 10-1-.3-1-.2-1.7.3-1.7 1.4 0 4.7 3.9 4 4.7-.4.3-.7.1-.7-.6s-.5-.9-1.1-.5c-.6.3-.9 1.9-.7 3.5.3 1.5.1 2.6-.3 2.3-.4-.2-5 3.4-10.3 8.1-5.2 4.7-9.9 8.5-10.4 8.5-.6 0-1.2.7-1.6 1.5-.5 1.3 3.8 1.5 34.6 1.5h35.1l-3.6-4.3c-1.9-2.3-4.2-4.1-5-3.9-.8.1-1.7-.5-2.1-1.3-.4-1-.2-1.4.5-.9 2.1 1.2-1.1-3.5-4.6-7.1-1.9-1.9-3.5-3.9-3.5-4.4s-1.7-2.4-3.7-4.2c-2.1-1.7-4-3.9-4.2-4.8-.3-.9-.8-26.3-1.1-56.4l-.5-54.8-9.7 9.6-9.8 9.5v77.2l-18.7-.4c-23.4-.6-27.4-1.6-34.9-9.3-3.7-3.9-5.9-7.3-7.8-12.2-1.4-3.8-2.6-7.5-2.6-8.3 0-1.3-.2-1.3-.9-.1-.5.8-.7 2.1-.4 3 .5 1.2.3 1.3-.7.5-.7-.7-.9-2.1-.5-3.4.4-1.2.8-8.4.9-15.9.1-12.5.4-14.5 3.6-24.1 1.8-5.8 4.8-12.9 6.7-15.8 1.8-2.9 3.3-5.6 3.3-6s2.9-3.7 6.4-7.2c3.6-3.5 6.3-6.7 6-7.1-.2-.4.3-1 1.2-1.3 1-.4 1.3-.2.8.7-.4.6.2.4 1.3-.6 1.1-.9 2.4-1.7 2.9-1.7.6 0 3.4-1.2 6.3-2.7 3-1.4 7-2.9 9-3.3s4.1-.8 4.6-1c2.6-.6 6.5.1 6.5 1.3 0 .8-1.1 2.4-2.5 3.7-1.9 1.8-2.2 2.6-1.3 3.3.9.6.8.7-.4.3-1.2-.3-5.9 3.8-16.8 14.7-8.2 8.4-15.9 16.8-17 18.7-6.2 11.3-6.5 12-6.5 23 0 10.9 1.9 19.6 3.6 16.9.7-1.2.9-1.1 1 .1.1.8 0 2.3 0 3.3-.1.9.5 2 1.3 2.3.9.3 1.4.9 1.1 1.3-.6 1 4.1 7.7 5.8 8.4 1.3.5 1.3-.1.1-4.6-1.7-6.3-1.8-16.7-.3-22.2.6-2.2 1.2-5.4 1.3-7 .1-1.9.7-3 1.6-3 .8 0 1.4-.9 1.3-1.8 0-1 .1-1.6.4-1.3s2.2-1.6 4.3-4.2 18.9-19.7 37.3-38.1c18.5-18.4 33.4-33.8 33.1-34.3-.5-.8-4.3-.8-39.4.2m-30.3 12.6c-.3.3-1.2.4-1.9.1-.8-.3-.5-.6.6-.6 1.1-.1 1.7.2 1.3.5m5.8 5.4c.3.6-.1 1.3-1 1.6-1.9.8-3 0-2-1.5.8-1.4 2.2-1.4 3-.1m-8.5 5c0 .5-.4 1-1 1-.5 0-1-.5-1-1 0-.6.5-1 1-1 .6 0 1 .4 1 1m-9.4 6.2c.4.7.3.8-.4.4s-1.2-.1-1.2.8c0 .8-.4 1.7-.9 2-.6.4-.8-2.9-.2-4.2.3-.6 2.1-.1 2.7 1m-20.2 3.4c.3.8.2 1.2-.4.9s-1-1-1-1.6c0-1.4.7-1.1 1.4.7M358 129c0 .5-.4 1-1 1-.5 0-1 .7-1 1.5s-.2 1.5-.4 1.5-1.1.3-2 .6-1.6.1-1.6-.6c0-.6.5-.8 1-.5.6.3 1 .1 1-.5 0-1.3 2.2-3.9 3.3-4 .4 0 .7.4.7 1m-24.5 5.9c.3.5.1 1.2-.5 1.6-.5.3-1-.1-1-.9 0-1.8.6-2.1 1.5-.7m-.5 8.1c0 .5-.5 1-1.1 1-.5 0-.7-.5-.4-1 .3-.6.8-1 1.1-1 .2 0 .4.4.4 1m39 0c0 .5-.4 1-1 1-.5 0-1-.5-1-1 0-.6.5-1 1-1 .6 0 1 .4 1 1m-3 9.6c0 .8-.7 1.4-1.5 1.4s-1.5-.9-1.5-2c0-1.3.5-1.8 1.5-1.4.8.4 1.5 1.2 1.5 2m-6.4 3.9c-.3.9-1.1 1.3-1.6 1-.8-.5-.7-1.1.1-2.1 1.4-1.8 2.4-1.1 1.5 1.1m-44.6 1.1c0 .8-.5 1.2-1 .9-.6-.4-.8-1.1-.5-1.6.9-1.4 1.5-1.1 1.5.7m-28.5 3.4c.3.5.1 1-.4 1-.6 0-1.1-.5-1.1-1 0-.6.2-1 .4-1 .3 0 .8.4 1.1 1m41.5-.4c0 .8-1.9 1.3-2.4.6-.3-.5.1-.9.9-.9s1.5.2 1.5.3m-10.4 4.9c-1.5 1.5-1.6 1.5-1.6-.3 0-2.4 1.1-3.5 2.3-2.3.6.6.4 1.6-.7 2.6m-10.6 2.1c0 .8-.5 1.2-1 .9-.6-.4-.8-1.1-.5-1.6.9-1.4 1.5-1.1 1.5.7m-2 17c0 .8-.5 1.2-1 .9-.6-.4-.8-1.1-.5-1.6.9-1.4 1.5-1.1 1.5.7m-18.5 23.5c0 .7-.8 1.5-1.7 1.7-1.8.3-2.5-1.8-1.1-3.2 1-1 2.8-.1 2.8 1.5m83.5 2.6c0 1-.5 2.5-1 3.3-.7 1.1-1 .7-1-1.8 0-1.7.5-3.2 1-3.2.6 0 1 .8 1 1.7M292 223c0 .5-.4 1-1 1-.5 0-1-.5-1-1 0-.6.5-1 1-1 .6 0 1 .4 1 1m69 1.9c0 .5-.6 1.4-1.4 2-1.2 1-1.4.9-1.1-.6.2-1 .4-1.9.4-2.1.2-.6 2.1-.1 2.1.7m8 1.5c0 .2.3 1.1.6 2 .4 1.2 0 1.6-1.5 1.6-1.4 0-2.1-.6-2.1-2 0-1.1.7-2 1.5-2s1.5.2 1.5.4m5.7 1.8c-.3.8-.6.5-.6-.6-.1-1.1.2-1.7.5-1.3.3.3.4 1.2.1 1.9m-19.6 3.7c-.8.5-2 .7-2.8.4-2.1-.8-1.5-1.3 1.5-1.3 2 0 2.3.3 1.3.9m-59.7.9c.2.4.1 1.4-.5 2.2-.8 1.4-1.1 1.1-.8-.6 0-.4-.5-1.1-1.3-1.5-1-.7-.9-.9.4-.9.9 0 1.9.4 2.2.8m19.6 1.1c0 .6-.5 1.3-1 1.6-1.5.9-4.3-.3-3.5-1.5.8-1.3 4.5-1.3 4.5-.1m32.5 3.1c-.8 1.3-3.5 1.3-5.5 0-1.1-.7-.5-1 2.3-1 2.3 0 3.6.4 3.2 1m20.3 2.2c-.6 1.8-2.8 2.1-2.8.4 0-.9.7-1.6 1.6-1.6s1.4.5 1.2 1.2m2.2 5.1c0 1.9-2.1 3.7-4.2 3.7-2.4 0-2.3-2.1.2-2.7 1.1-.3 2-.9 2-1.4s.5-.9 1-.9c.6 0 1 .6 1 1.3m5 3.8c0 .5-.7.9-1.5.9-1.5 0-2-1.2-.9-2.3.8-.8 2.4.1 2.4 1.4m-10.2 4.8c.3.8-.1 1.2-.9.9-.7-.2-1.5-1-1.7-1.7-.3-.8.1-1.2.9-.9.7.2 1.5 1 1.7 1.7m13.4-.4c0 .5-.5 1.1-1.1 1.3s-1.1-.4-1.1-1.3.5-1.5 1.1-1.3 1.1.8 1.1 1.3m-26.6 12.2c-1 1-1.9-.5-1-1.8.6-1.1.8-1.1 1.2 0 .2.7.1 1.5-.2 1.8m-1.6 6.4c0 .5-.7.9-1.5.9s-1.5-.7-1.5-1.5c0-.9.6-1.2 1.5-.9.8.4 1.5 1 1.5 1.5"/><path fill="navy" fill-opacity=".2" d="M390.9 103.7c-1.3 1.6-1.2 1.7.4.4.9-.7 1.7-1.5 1.7-1.7 0-.8-.8-.3-2.1 1.3m-21 21c-1.3 1.6-1.2 1.7.4.4.9-.7 1.7-1.5 1.7-1.7 0-.8-.8-.3-2.1 1.3m-16 16c-1.3 1.6-1.2 1.7.4.4.9-.7 1.7-1.5 1.7-1.7 0-.8-.8-.3-2.1 1.3M398.5 266c1 1.1 2 2 2.3 2s-.3-.9-1.3-2-2-2-2.3-2 .3.9 1.3 2"/><path fill="#404080" fill-opacity=".5" d="M355.3 212.5c0 2.2.2 3 .4 1.7.2-1.2.2-3 0-4-.3-.9-.5.1-.4 2.3"/><path fill="#404080" fill-opacity=".1" d="M378.2 142.5c0 1.6.2 2.2.5 1.2.2-.9.2-2.3 0-3-.3-.6-.5.1-.5 1.8m-109 39.5c0 1.9.2 2.7.5 1.7.2-.9.2-2.5 0-3.5-.3-.9-.5-.1-.5 1.8m48.9 9.6c0 1.1.3 1.4.6.6.3-.7.2-1.6-.1-1.9-.3-.4-.6.2-.5 1.3m.1 4.4c0 1.4.2 1.9.5 1.2.2-.6.2-1.8 0-2.5-.3-.6-.5-.1-.5 1.3m59.9 11.6c0 1.1.3 1.4.6.6.3-.7.2-1.6-.1-1.9-.3-.4-.6.2-.5 1.3m.1 10.4c0 1.4.2 1.9.5 1.2.2-.6.2-1.8 0-2.5-.3-.6-.5-.1-.5 1.3m.1 8.5c0 2.7.2 3.8.4 2.2.2-1.5.2-3.7 0-5-.2-1.2-.4 0-.4 2.8m-50 1.2c.9.2 2.3.2 3 0 .6-.3-.1-.5-1.8-.5-1.6 0-2.2.2-1.2.5m13 0c.9.2 2.5.2 3.5 0 .9-.3.1-.5-1.8-.5s-2.7.2-1.7.5m37.7 14.7c0 .2.8 1 1.8 1.7 1.5 1.3 1.6 1.2.3-.4s-2.1-2.1-2.1-1.3"/><path fill="#4040FF" d="M325.8 106.7c.7.3 1.6.2 1.9-.1.4-.3-.2-.6-1.3-.5-1.1 0-1.4.3-.6.6m4.7 5.4c-1 1.5.1 2.3 2 1.5.9-.3 1.3-1 1-1.6-.8-1.3-2.2-1.3-3 .1m-31.8 4.6c-.3.5.4 1.5 1.6 2.3 2.1 1.2 2.1 1.2.7-.6-.8-1-1.5-2-1.6-2.2s-.4.1-.7.5m24.3.3c0 .5.5 1 1 1 .6 0 1-.5 1-1 0-.6-.4-1-1-1-.5 0-1 .4-1 1m-5 5c-.9.6-1 1-.3 1 .6 0 1.5-.5 1.8-1 .8-1.2.4-1.2-1.5 0m-5.1.2c-.6 1.3-.4 4.6.2 4.2.5-.3.9-1.2.9-2 0-.9.5-1.2 1.2-.8s.8.3.4-.4c-.6-1.1-2.4-1.6-2.7-1m-18.9 3.7c0 .6.4 1.3 1 1.6s.7-.1.4-.9c-.7-1.8-1.4-2.1-1.4-.7m61.3 3.6c-.7.8-1.3 1.9-1.3 2.5s-.4.8-1 .5c-.5-.3-1-.1-1 .5 0 .7.7.9 1.6.6s1.8-.6 2-.6.4-.7.4-1.5.5-1.5 1-1.5c.6 0 1-.5 1-1 0-1.4-1.3-1.2-2.7.5m-23.3 6.1c0 .8.5 1.2 1 .9.6-.4.8-1.1.5-1.6-.9-1.4-1.5-1.1-1.5.7m-.5 7.4c-.3.5-.1 1 .4 1 .6 0 1.1-.5 1.1-1 0-.6-.2-1-.4-1-.3 0-.8.4-1.1 1m38.5 0c0 .5.5 1 1 1 .6 0 1-.5 1-1 0-.6-.4-1-1-1-.5 0-1 .4-1 1m-4 9c0 1.1.7 2 1.5 2s1.5-.6 1.5-1.4-.7-1.6-1.5-2c-1-.4-1.5.1-1.5 1.4m-4.9 3.4c-.8 1-.9 1.6-.1 2.1.5.3 1.3-.1 1.6-1 .9-2.2-.1-2.9-1.5-1.1m-44.6 1.5c-.3.5-.1 1.2.5 1.6.5.3 1-.1 1-.9 0-1.8-.6-2.1-1.5-.7M288 161c0 .5.5 1 1.1 1 .5 0 .7-.5.4-1-.3-.6-.8-1-1.1-1-.2 0-.4.4-.4 1m40.6.2c.3.5 1 .6 1.5.3 1.3-.9 1.1-1.2-.6-1.2-.8 0-1.2.4-.9.9m-8.9 1.4c-.4.4-.7 1.6-.7 2.6 0 1.8.1 1.8 1.6.3 1.1-1 1.3-2 .7-2.6-.5-.5-1.2-.6-1.6-.3m-11.2 4.3c-.3.5-.1 1.2.5 1.6.5.3 1-.1 1-.9 0-1.8-.6-2.1-1.5-.7m11.1 7c-.4.7-.5 1.5-.2 1.8.9.9 1.9-.4 1.4-1.8-.4-1.1-.6-1.1-1.2 0m-13.1 10c-.3.5-.1 1.2.5 1.6.5.3 1-.1 1-.9 0-1.8-.6-2.1-1.5-.7m2.5 11.6c0 .8.4 1.5 1 1.5.5 0 .7-.7.4-1.5-.4-.8-.8-1.5-1-1.5s-.4.7-.4 1.5m-18.5 3.6c-.4 1.2-.3 2.5.2 3 .6.6 1-.1 1.1-2.1.1-3.5-.4-3.9-1.3-.9m-3.8 7.5c-1.4 1.4-.7 3.5 1.1 3.2.9-.2 1.7-1 1.7-1.7 0-1.6-1.8-2.5-2.8-1.5m84.3 5.6c0 2.5.3 2.9 1 1.8 1.3-2 1.3-5 0-5-.5 0-1 1.5-1 3.2M290 223c0 .5.5 1 1 1 .6 0 1-.5 1-1 0-.6-.4-1-1-1-.5 0-1 .4-1 1m68.9 1.2c0 .2-.2 1.1-.4 2.1-.3 1.5-.1 1.6 1.1.6 1.6-1.3 1.9-2.9.4-2.9-.5 0-1 .1-1.1.2m7.1 3.8c0 1.4.7 2 2.1 2 1.5 0 1.9-.4 1.5-1.6-.3-.9-.6-1.8-.6-2s-.7-.4-1.5-.4-1.5.9-1.5 2m8.1-.4c0 1.1.3 1.4.6.6.3-.7.2-1.6-.1-1.9-.3-.4-.6.2-.5 1.3m-23.1 3.8c0 1 2.8 1.3 4.1.5 1-.6.7-.9-1.3-.9-1.6 0-2.8.2-2.8.4m-58.2 1.5c.8.4 1.3 1.1 1.3 1.5-.3 1.7 0 2 .8.6 1.2-1.8.5-3-1.7-3-1.3 0-1.4.2-.4.9m17.7 1.1c-.8 1.2 2 2.4 3.5 1.5.5-.3 1-1 1-1.6 0-1.2-3.7-1.2-4.5.1m31.5 3c2 1.3 4.7 1.3 5.5 0 .4-.6-.9-1-3.2-1-2.8 0-3.4.3-2.3 1m23 2.6c0 .9.5 1.4 1.2 1.2 1.8-.6 2.1-2.8.4-2.8-.9 0-1.6.7-1.6 1.6m3 4.3c0 .5-.9 1.1-2 1.4s-2 1-2 1.6c0 1.5 3.3 1.4 4.8-.1s1.6-3.8.2-3.8c-.5 0-1 .4-1 .9m-57 1.6c3 1.7 4.8 1.9 3.2.3-.6-.6-2.2-1.3-3.4-1.5-2.2-.3-2.2-.2.2 1.2m44 1.4c0 1.3 2.6 3.2 3.3 2.4.4-.3.7 0 .7.7s.3 1 .7.7c.3-.4-.2-1.6-1.2-2.7-1.9-2.1-3.5-2.6-3.5-1.1m17.6-.2c-1.1 1.1-.6 2.3.9 2.3.8 0 1.5-.4 1.5-.9 0-1.3-1.6-2.2-2.4-1.4m-10.4 5.4c.2.7 1 1.5 1.7 1.7.8.3 1.2-.1.9-.9-.2-.7-1-1.5-1.7-1.7-.8-.3-1.2.1-.9.9m13.8.4c0 .9.5 1.5 1.1 1.3s1.1-.8 1.1-1.3-.5-1.1-1.1-1.3-1.1.4-1.1 1.3m-25.4 10.4c-.4.7-.5 1.5-.2 1.8.9.9 1.9-.4 1.4-1.8-.4-1.1-.6-1.1-1.2 0m43.1 2.7c.6 1.5 2.3 1.9 2.3.5 0-.5-.7-1.1-1.4-1.4q-1.5-.6-.9.9m-46.7 4.9c0 .8.7 1.5 1.5 1.5s1.5-.4 1.5-.9-.7-1.1-1.5-1.5c-.9-.3-1.5 0-1.5.9"/><path fill="navy" fill-opacity=".1" d="M382.9 111.7c-1.3 1.6-1.2 1.7.4.4s2.1-2.1 1.3-2.1c-.2 0-1 .8-1.7 1.7m-4.5 4.5-1.9 2.3 2.3-1.9c1.2-1.1 2.2-2.1 2.2-2.3 0-.8-.8-.2-2.6 1.9m-12.5 12.5-2.4 2.8 2.8-2.4c2.5-2.3 3.2-3.1 2.4-3.1-.2 0-1.4 1.2-2.8 2.7m-20.5 20.5-1.9 2.3 2.3-1.9c1.2-1.1 2.2-2.1 2.2-2.3 0-.8-.8-.2-2.6 1.9m-5 5-1.9 2.3 2.3-1.9c2.1-1.8 2.7-2.6 1.9-2.6-.2 0-1.2 1-2.3 2.2"/><path fill="#004080" fill-opacity=".4" d="M355.2 204c0 1.9.2 2.7.5 1.7.2-.9.2-2.5 0-3.5-.3-.9-.5-.1-.5 1.8m-.1 18.6c0 1.1.3 1.4.6.6.3-.7.2-1.6-.1-1.9-.3-.4-.6.2-.5 1.3"/><path fill="navy" fill-opacity=".5" d="M355.2 179c0 1.4.2 1.9.5 1.2.2-.6.2-1.8 0-2.5-.3-.6-.5-.1-.5 1.3m.1 7c0 2.5.2 3.5.4 2.2.2-1.2.2-3.2 0-4.5-.2-1.2-.4-.2-.4 2.3"/><path fill="#004080" fill-opacity=".5" d="M355.2 157.5c0 1.6.2 2.2.5 1.2.2-.9.2-2.3 0-3-.3-.6-.5.1-.5 1.8m0 8.5c0 1.9.2 2.7.5 1.7.2-.9.2-2.5 0-3.5-.3-.9-.5-.1-.5 1.8m.1 7.5c0 2.2.2 3 .4 1.7.2-1.2.2-3 0-4-.3-.9-.5.1-.4 2.3"/><path fill="navy" fill-opacity=".4" d="M355.2 194.5c0 1.6.2 2.2.5 1.2.2-.9.2-2.3 0-3-.3-.6-.5.1-.5 1.8"/></svg>